<mxfile host="www.draw.io" modified="2019-10-29T09:48:46.466Z" agent="Mozilla/5.0 (Windows NT 10.0; Win64; x64) AppleWebKit/537.36 (KHTML, like Gecko) Chrome/69.0.3497.92 Safari/537.36" etag="iltd5puC32uhHectzLoH" version="12.1.8" type="github" pages="1">
  <diagram id="N_HsQUF1u8040i6pDySw" name="Page-1">
    <mxGraphModel dx="1346" dy="789" grid="1" gridSize="10" guides="1" tooltips="1" connect="1" arrows="1" fold="1" page="1" pageScale="1" pageWidth="827" pageHeight="1169" math="0" shadow="0">
      <root>
        <mxCell id="0"/>
        <mxCell id="1" parent="0"/>
        <mxCell id="oDpjd4YMm7qQCv3SK3J_-42" style="edgeStyle=orthogonalEdgeStyle;curved=1;rounded=0;orthogonalLoop=1;jettySize=auto;html=1;entryX=0;entryY=0.5;entryDx=0;entryDy=0;fontFamily=Verdana;exitX=0;exitY=0.5;exitDx=0;exitDy=0;exitPerimeter=0;" edge="1" parent="1" source="oDpjd4YMm7qQCv3SK3J_-13" target="oDpjd4YMm7qQCv3SK3J_-15">
          <mxGeometry relative="1" as="geometry">
            <Array as="points">
              <mxPoint x="220" y="485"/>
              <mxPoint x="220" y="290"/>
            </Array>
          </mxGeometry>
        </mxCell>
        <mxCell id="oDpjd4YMm7qQCv3SK3J_-51" style="edgeStyle=orthogonalEdgeStyle;curved=1;rounded=0;orthogonalLoop=1;jettySize=auto;html=1;exitX=1;exitY=0.5;exitDx=0;exitDy=0;exitPerimeter=0;fontFamily=Verdana;" edge="1" parent="1" source="oDpjd4YMm7qQCv3SK3J_-13" target="oDpjd4YMm7qQCv3SK3J_-48">
          <mxGeometry relative="1" as="geometry">
            <mxPoint x="650" y="300" as="targetPoint"/>
            <Array as="points">
              <mxPoint x="488" y="485"/>
            </Array>
          </mxGeometry>
        </mxCell>
        <mxCell id="oDpjd4YMm7qQCv3SK3J_-13" value="" style="fontColor=#0066CC;verticalAlign=top;verticalLabelPosition=bottom;labelPosition=center;align=center;html=1;outlineConnect=0;fillColor=#CCCCCC;strokeColor=#6881B3;gradientColor=none;gradientDirection=north;strokeWidth=2;shape=mxgraph.networks.pc;shadow=0;" vertex="1" parent="1">
          <mxGeometry x="240" y="450" width="103" height="70" as="geometry"/>
        </mxCell>
        <mxCell id="oDpjd4YMm7qQCv3SK3J_-41" style="edgeStyle=orthogonalEdgeStyle;curved=1;rounded=0;orthogonalLoop=1;jettySize=auto;html=1;entryX=1;entryY=0.5;entryDx=0;entryDy=0;entryPerimeter=0;fontFamily=Verdana;exitX=1;exitY=0.5;exitDx=0;exitDy=0;" edge="1" parent="1" source="oDpjd4YMm7qQCv3SK3J_-15" target="oDpjd4YMm7qQCv3SK3J_-13">
          <mxGeometry relative="1" as="geometry">
            <Array as="points">
              <mxPoint x="370" y="290"/>
              <mxPoint x="370" y="485"/>
            </Array>
          </mxGeometry>
        </mxCell>
        <mxCell id="oDpjd4YMm7qQCv3SK3J_-15" value="dns服务器" style="rounded=0;whiteSpace=wrap;html=1;shadow=0;fontFamily=Verdana;" vertex="1" parent="1">
          <mxGeometry x="240" y="260" width="120" height="60" as="geometry"/>
        </mxCell>
        <mxCell id="oDpjd4YMm7qQCv3SK3J_-40" value="1" style="ellipse;whiteSpace=wrap;html=1;aspect=fixed;shadow=0;fontFamily=Verdana;" vertex="1" parent="1">
          <mxGeometry x="185" y="330" width="30" height="30" as="geometry"/>
        </mxCell>
        <mxCell id="oDpjd4YMm7qQCv3SK3J_-44" value="2" style="ellipse;whiteSpace=wrap;html=1;aspect=fixed;shadow=0;fontFamily=Verdana;" vertex="1" parent="1">
          <mxGeometry x="383" y="385" width="30" height="30" as="geometry"/>
        </mxCell>
        <mxCell id="oDpjd4YMm7qQCv3SK3J_-45" value="建行IP多少？" style="whiteSpace=wrap;html=1;shape=mxgraph.basic.roundRectCallout;dx=30;dy=15;size=5;boundedLbl=1;shadow=0;fontFamily=Verdana;direction=west;" vertex="1" parent="1">
          <mxGeometry x="108" y="370" width="100" height="60" as="geometry"/>
        </mxCell>
        <mxCell id="oDpjd4YMm7qQCv3SK3J_-47" value="a,b,c,d" style="whiteSpace=wrap;html=1;shape=mxgraph.basic.roundRectCallout;dx=30;dy=15;size=5;boundedLbl=1;shadow=0;fontFamily=Verdana;" vertex="1" parent="1">
          <mxGeometry x="383" y="340" width="70" height="40" as="geometry"/>
        </mxCell>
        <mxCell id="oDpjd4YMm7qQCv3SK3J_-48" value="" style="fontColor=#0066CC;verticalAlign=top;verticalLabelPosition=bottom;labelPosition=center;align=center;html=1;outlineConnect=0;fillColor=#CCCCCC;strokeColor=#6881B3;gradientColor=none;gradientDirection=north;strokeWidth=2;shape=mxgraph.networks.desktop_pc;shadow=0;" vertex="1" parent="1">
          <mxGeometry x="448" y="90" width="80" height="150" as="geometry"/>
        </mxCell>
        <mxCell id="oDpjd4YMm7qQCv3SK3J_-50" value="建行服务器IP： a,b,c,d" style="text;html=1;resizable=0;points=[];autosize=1;align=left;verticalAlign=top;spacingTop=-4;fontFamily=Verdana;" vertex="1" parent="1">
          <mxGeometry x="428" y="60" width="150" height="20" as="geometry"/>
        </mxCell>
        <mxCell id="oDpjd4YMm7qQCv3SK3J_-53" value="3" style="ellipse;whiteSpace=wrap;html=1;aspect=fixed;shadow=0;fontFamily=Verdana;" vertex="1" parent="1">
          <mxGeometry x="473" y="380" width="30" height="30" as="geometry"/>
        </mxCell>
        <mxCell id="oDpjd4YMm7qQCv3SK3J_-54" value="正常交易" style="whiteSpace=wrap;html=1;shape=mxgraph.basic.roundRectCallout;dx=30;dy=15;size=5;boundedLbl=1;shadow=0;fontFamily=Verdana;" vertex="1" parent="1">
          <mxGeometry x="493" y="330" width="60" height="50" as="geometry"/>
        </mxCell>
      </root>
    </mxGraphModel>
  </diagram>
</mxfile>
